<?xml version="1.0" standalone="no"?>
<!DOCTYPE svg PUBLIC "-//W3C//DTD SVG 20010904//EN"
 "http://www.w3.org/TR/2001/REC-SVG-20010904/DTD/svg10.dtd">
<svg version="1.0" xmlns="http://www.w3.org/2000/svg"
 width="981.000000pt" height="462.000000pt" viewBox="0 0 981.000000 462.000000"
 preserveAspectRatio="xMidYMid meet">
<metadata>
Created by potrace 1.10, written by Peter Selinger 2001-2011
</metadata>
<g transform="translate(0.000000,462.000000) scale(0.100000,-0.100000)"
fill="#89023c" stroke="none">
<path d="M1645 3537 c-3 -6 -4 -415 -3 -907 l3 -895 25 -3 c41 -4 153 -33 187
-48 17 -8 42 -14 55 -14 12 0 32 -7 42 -15 11 -8 32 -15 48 -15 15 0 28 -4 28
-10 0 -5 18 -13 40 -16 22 -4 45 -13 51 -20 21 -25 48 -15 105 41 36 35 51 55
41 55 -10 0 -17 -4 -17 -10 0 -13 -100 -70 -122 -70 -26 0 -22 9 19 46 20 18
34 36 30 40 -4 4 -15 0 -24 -8 -21 -19 -105 -48 -116 -41 -5 3 -1 14 9 24 23
26 12 34 -27 20 -18 -6 -41 -11 -52 -11 -20 0 -20 1 3 25 27 28 71 33 90 10
12 -14 15 -14 36 0 27 17 80 20 89 5 5 -8 12 -7 22 2 13 11 515 13 2712 12
1483 -1 2718 -2 2745 -2 29 -1 52 -6 57 -14 6 -10 15 -10 42 0 49 18 80 15 95
-9 19 -29 9 -34 -37 -19 -54 17 -71 4 -35 -26 34 -27 66 -30 88 -9 8 8 28 15
43 15 16 0 38 7 49 15 10 8 31 15 46 15 15 0 39 5 55 11 15 7 46 15 68 18 l40
6 0 905 0 905 -3263 2 c-2598 2 -3264 0 -3267 -10z m403 -122 c9 -4 12 -143
12 -653 0 -508 3 -652 13 -660 6 -5 46 -9 87 -8 l75 1 5 85 5 85 105 0 105 0
3 -189 c2 -130 -1 -193 -9 -202 -9 -11 -68 -14 -305 -14 l-294 0 -5 23 c-3 12
-4 362 -3 777 l3 754 24 6 c25 6 156 2 179 -5z m958 -6 c6 -5 14 -33 17 -62 3
-28 10 -77 16 -107 16 -84 32 -188 41 -260 4 -36 12 -85 18 -110 16 -66 33
-165 42 -245 5 -38 13 -83 19 -98 6 -16 11 -50 11 -76 0 -26 7 -70 15 -97 8
-27 15 -64 15 -82 0 -18 6 -61 14 -95 21 -93 39 -206 40 -262 l1 -50 -95 -3
c-66 -2 -100 1 -112 10 -12 9 -20 40 -27 108 -14 125 -19 130 -144 126 l-92
-2 -6 -35 c-3 -19 -11 -47 -18 -62 -6 -16 -11 -51 -11 -78 0 -44 -3 -51 -26
-59 -40 -16 -169 -13 -183 4 -13 16 -7 113 14 216 7 36 18 97 24 135 6 39 18
106 27 150 9 44 20 105 24 135 4 30 12 80 18 110 26 131 36 189 43 245 11 83
28 171 45 231 8 28 14 69 14 91 0 22 5 53 10 70 6 16 14 59 18 94 7 61 8 64
37 69 41 8 177 0 191 -11z m3052 -2 c19 -15 18 -1520 -2 -1536 -9 -8 -48 -11
-112 -9 l-99 3 -3 385 c-1 212 -5 392 -8 400 -4 13 -6 13 -14 0 -6 -8 -10 -27
-10 -43 0 -15 -6 -53 -14 -85 -8 -31 -22 -93 -31 -137 -9 -44 -22 -96 -28
-115 -6 -19 -14 -55 -19 -80 -17 -98 -45 -229 -65 -299 -2 -8 -7 -10 -12 -5
-7 8 -33 105 -44 164 -3 14 -10 39 -16 55 -6 17 -24 93 -41 170 -17 77 -37
163 -45 190 -7 28 -16 68 -20 90 -4 22 -12 46 -18 53 -5 7 -14 30 -18 50 -4
20 -6 -143 -5 -363 2 -220 -1 -408 -6 -417 -7 -15 -23 -18 -102 -18 -67 0 -97
4 -105 14 -8 9 -10 221 -9 777 l3 764 150 0 150 0 12 -60 c6 -33 19 -96 27
-140 8 -44 20 -107 26 -140 7 -33 16 -89 20 -125 4 -36 13 -78 19 -93 6 -16
11 -46 11 -67 0 -38 17 -64 24 -38 6 22 28 130 36 178 4 25 12 65 18 90 6 25
19 81 28 125 9 44 22 105 30 136 8 30 14 69 14 86 0 17 6 35 13 41 13 11 193
21 232 13 11 -2 26 -8 33 -14z m330 -756 c1 -556 -1 -768 -9 -777 -8 -10 -38
-14 -105 -14 -82 0 -95 2 -104 19 -12 23 -14 1509 -2 1527 10 17 35 20 131 14
l86 -5 3 -764z m321 765 c9 -10 12 -84 11 -253 -1 -131 -1 -244 0 -251 0 -19
20 -4 20 15 0 8 20 57 45 109 25 51 45 99 45 106 0 8 4 18 9 23 5 6 25 48 45
94 19 46 44 101 53 122 l18 38 118 1 c113 0 117 -1 117 -22 0 -11 -12 -46 -26
-77 -14 -31 -34 -74 -44 -96 -10 -22 -28 -61 -40 -87 -12 -27 -26 -50 -31 -54
-5 -3 -9 -16 -9 -28 0 -13 -7 -29 -15 -36 -8 -7 -15 -19 -15 -27 0 -14 -5 -26
-47 -105 -21 -41 -20 -125 1 -166 9 -17 16 -41 16 -54 1 -13 7 -34 15 -48 8
-14 15 -38 15 -55 0 -16 7 -41 15 -55 8 -14 14 -37 15 -52 0 -15 6 -42 14 -60
13 -31 26 -76 62 -208 9 -30 20 -68 26 -85 5 -16 13 -46 18 -65 4 -19 15 -58
24 -87 29 -86 28 -88 -98 -91 -118 -3 -136 3 -136 47 0 14 -7 39 -15 55 -8 15
-15 40 -15 55 -1 14 -7 37 -15 51 -8 14 -14 36 -15 48 0 13 -6 38 -14 55 -13
31 -31 98 -46 167 -4 19 -12 46 -18 60 -6 14 -18 52 -27 85 -9 33 -22 83 -30
110 -8 28 -17 63 -20 79 -3 15 -8 26 -11 23 -3 -3 -5 -186 -4 -407 0 -292 -2
-406 -11 -416 -8 -10 -37 -14 -105 -14 -80 0 -95 3 -103 18 -6 12 -10 303 -11
769 0 612 2 752 13 761 7 6 51 13 97 15 47 1 88 4 91 5 4 1 12 -4 18 -12z
m1039 -9 c7 -5 12 -32 12 -62 0 -28 7 -74 15 -101 8 -27 15 -62 15 -79 0 -28
12 -102 40 -245 6 -30 15 -92 20 -138 5 -46 14 -91 20 -102 5 -10 10 -40 10
-67 1 -26 7 -66 15 -88 8 -22 15 -61 15 -86 0 -25 7 -68 15 -95 8 -27 15 -67
15 -89 0 -22 5 -56 11 -75 6 -19 14 -66 19 -105 5 -38 14 -95 21 -126 19 -86
16 -89 -99 -89 -125 0 -128 3 -135 124 -3 60 -10 93 -20 103 -17 17 -183 28
-206 13 -15 -8 -40 -117 -41 -172 0 -55 -25 -68 -131 -68 -105 0 -116 8 -94
70 8 23 15 60 15 82 0 21 6 67 14 101 24 107 38 180 46 237 6 52 17 111 42
240 5 30 14 82 18 115 5 33 13 76 19 95 6 19 11 51 11 70 0 19 7 57 15 84 8
27 15 66 15 87 0 21 4 49 10 63 5 14 14 58 20 98 6 40 16 105 23 143 l13 70
65 5 c76 6 139 1 157 -13z m-3810 -224 c3 -257 10 -281 51 -175 12 31 26 64
31 73 4 9 27 61 50 115 24 54 56 127 72 162 l30 63 116 -3 117 -3 -2 -25 c0
-14 -23 -71 -49 -125 -82 -174 -123 -264 -138 -305 -3 -8 -10 -22 -15 -30 -45
-80 -53 -132 -26 -184 8 -15 15 -39 15 -53 0 -14 6 -39 14 -56 7 -18 18 -52
25 -77 6 -25 18 -67 27 -95 8 -27 19 -70 24 -95 4 -25 12 -56 18 -70 10 -27
34 -107 88 -300 8 -30 19 -67 24 -82 14 -48 -3 -57 -118 -59 -111 -3 -116 -1
-128 51 -6 27 -30 112 -49 175 -7 22 -20 69 -29 105 -21 79 -63 226 -92 320
-8 25 -14 55 -14 67 0 32 -10 53 -26 53 -12 0 -14 -61 -14 -373 0 -277 -3
-376 -12 -385 -16 -16 -190 -16 -206 0 -9 9 -12 195 -12 773 0 419 3 765 7
769 4 3 54 5 112 4 l106 -3 3 -232z m1120 221 c12 -8 31 -33 42 -54 19 -38 20
-60 20 -704 0 -660 0 -666 -21 -710 -35 -71 -55 -76 -292 -75 -223 1 -268 9
-301 52 -21 28 -21 32 -21 734 l0 705 37 34 38 34 238 0 c199 0 241 -3 260
-16z"/>
<path d="M2876 2748 c-3 -13 -6 -44 -6 -70 0 -26 -5 -59 -10 -74 -10 -25 -29
-161 -33 -229 l-2 -30 65 0 65 0 3 43 c2 24 -2 65 -8 90 -7 26 -15 81 -20 122
-9 87 -29 170 -40 170 -4 0 -10 -10 -14 -22z"/>
<path d="M7616 2769 c-3 -17 -6 -53 -6 -79 0 -26 -4 -60 -10 -76 -5 -16 -15
-67 -20 -114 -6 -47 -13 -102 -16 -122 l-6 -38 66 0 c48 0 68 4 72 14 3 8 0
47 -6 87 -7 41 -16 108 -20 149 -8 72 -34 197 -43 206 -2 3 -7 -10 -11 -27z"/>
<path d="M4731 3186 c-11 -5 -21 -16 -21 -25 0 -9 0 -247 -1 -530 -1 -588 -9
-541 92 -541 36 0 61 5 68 14 14 16 16 1065 3 1078 -12 12 -116 15 -141 4z"/>
<path d="M570 2625 c0 -2 17 -31 37 -62 45 -69 59 -91 73 -118 6 -11 18 -32
28 -46 9 -15 37 -59 62 -98 25 -40 52 -83 60 -96 92 -141 132 -217 126 -239
-3 -13 -25 -57 -49 -98 -24 -40 -46 -80 -50 -88 -4 -8 -16 -28 -26 -45 -11
-16 -29 -48 -41 -70 -12 -22 -35 -59 -51 -83 -16 -24 -29 -45 -29 -49 0 -3
-13 -24 -28 -47 -15 -22 -31 -49 -35 -58 -3 -10 -22 -43 -42 -74 -19 -30 -33
-59 -30 -65 8 -12 2022 -12 2030 0 3 5 -18 21 -47 35 -50 25 -65 33 -105 56
-10 6 -29 15 -43 21 -14 5 -57 26 -97 45 -39 19 -74 34 -78 34 -4 0 -21 6 -38
14 -83 37 -131 56 -143 56 -7 0 -28 6 -46 14 -18 8 -60 22 -93 31 -77 21 -146
40 -216 59 -31 9 -70 16 -87 16 -21 0 -35 7 -42 21 -8 14 -10 158 -8 474 2
372 1 456 -10 460 -17 6 -982 7 -982 0z"/>
<path d="M8270 2623 c-1 -5 0 -213 0 -464 1 -508 3 -489 -66 -489 -20 0 -44
-5 -55 -11 -11 -6 -41 -14 -67 -19 -26 -4 -60 -13 -77 -18 -16 -6 -61 -20
-100 -31 -91 -26 -188 -59 -250 -86 -16 -7 -55 -23 -85 -35 -47 -19 -242 -114
-326 -158 -13 -7 -22 -17 -19 -22 9 -14 2022 -13 2030 0 4 6 0 19 -8 28 -14
16 -124 197 -140 232 -4 8 -16 29 -27 45 -11 17 -23 37 -27 45 -4 8 -20 34
-35 56 -15 23 -28 44 -28 47 0 3 -27 51 -60 107 -33 57 -60 113 -60 128 0 17
36 84 91 172 106 168 160 254 174 278 6 9 23 36 38 59 15 24 27 45 27 48 0 4
11 21 25 39 14 18 25 38 25 44 0 14 -980 18 -980 5z"/>
<path d="M7645 1689 c-4 -5 2 -12 11 -16 22 -8 54 -40 54 -53 0 -19 -38 -10
-79 21 -57 41 -64 29 -14 -21 41 -40 79 -52 89 -26 3 7 23 16 45 20 21 3 39
10 39 14 0 8 -79 42 -98 42 -6 0 -12 4 -12 9 0 13 -28 22 -35 10z"/>
<path d="M2261 1604 c-13 -13 -35 -24 -48 -24 -30 0 -30 -18 1 -26 20 -5 33 2
64 35 42 44 26 58 -17 15z"/>
<path d="M7546 1598 c16 -18 32 -37 35 -41 8 -10 49 1 49 13 0 4 -10 10 -23
14 -12 3 -32 14 -44 26 -36 33 -49 23 -17 -12z"/>
<path d="M2303 1562 c-37 -19 -42 -32 -13 -32 20 0 60 28 60 42 0 11 -10 9
-47 -10z"/>
<path d="M7490 1562 c0 -15 38 -44 49 -37 16 9 13 22 -6 29 -10 3 -24 9 -30
12 -7 3 -13 1 -13 -4z"/>
<path d="M2362 1526 c-35 -20 -37 -26 -11 -26 13 0 30 9 37 20 14 22 7 24 -26
6z"/>
<path d="M7430 1533 c0 -15 23 -33 42 -33 23 0 23 16 1 24 -10 3 -24 9 -30 12
-7 3 -13 2 -13 -3z"/>
<path d="M7387 1484 c3 -8 11 -14 19 -14 21 0 17 17 -5 23 -14 3 -18 1 -14 -9z"/>
</g>
</svg>
